<svg id="visual" viewBox="0 0 900 600" width="900" height="600" xmlns="http://www.w3.org/2000/svg" xmlns:xlink="http://www.w3.org/1999/xlink" version="1.1"><rect x="0" y="0" width="900" height="600" fill="#59C1BD"></rect><path d="M0 250L16.7 259C33.3 268 66.7 286 100 288.3C133.3 290.7 166.7 277.3 200 278.5C233.3 279.7 266.7 295.3 300 293.5C333.3 291.7 366.7 272.3 400 279C433.3 285.7 466.7 318.3 500 319.3C533.3 320.3 566.7 289.7 600 274.8C633.3 260 666.7 261 700 272.2C733.3 283.3 766.7 304.7 800 314.8C833.3 325 866.7 324 883.3 323.5L900 323L900 601L883.3 601C866.7 601 833.3 601 800 601C766.7 601 733.3 601 700 601C666.7 601 633.3 601 600 601C566.7 601 533.3 601 500 601C466.7 601 433.3 601 400 601C366.7 601 333.3 601 300 601C266.7 601 233.3 601 200 601C166.7 601 133.3 601 100 601C66.7 601 33.3 601 16.7 601L0 601Z" fill="#f49d1a"></path><path d="M0 419L16.7 414.7C33.3 410.3 66.7 401.7 100 397.8C133.3 394 166.7 395 200 398.7C233.3 402.3 266.7 408.7 300 398.2C333.3 387.7 366.7 360.3 400 358.2C433.3 356 466.7 379 500 381.5C533.3 384 566.7 366 600 367.3C633.3 368.7 666.7 389.3 700 392.5C733.3 395.7 766.7 381.3 800 371.3C833.3 361.3 866.7 355.7 883.3 352.8L900 350L900 601L883.3 601C866.7 601 833.3 601 800 601C766.7 601 733.3 601 700 601C666.7 601 633.3 601 600 601C566.7 601 533.3 601 500 601C466.7 601 433.3 601 400 601C366.7 601 333.3 601 300 601C266.7 601 233.3 601 200 601C166.7 601 133.3 601 100 601C66.7 601 33.3 601 16.7 601L0 601Z" fill="#f8b42f"></path><path d="M0 474L16.7 475.7C33.3 477.3 66.7 480.7 100 481C133.3 481.3 166.7 478.7 200 468.5C233.3 458.3 266.7 440.7 300 428C333.3 415.3 366.7 407.7 400 412.2C433.3 416.7 466.7 433.3 500 445.5C533.3 457.7 566.7 465.3 600 461.5C633.3 457.7 666.7 442.3 700 444.7C733.3 447 766.7 467 800 473C833.3 479 866.7 471 883.3 467L900 463L900 601L883.3 601C866.7 601 833.3 601 800 601C766.7 601 733.3 601 700 601C666.7 601 633.3 601 600 601C566.7 601 533.3 601 500 601C466.7 601 433.3 601 400 601C366.7 601 333.3 601 300 601C266.7 601 233.3 601 200 601C166.7 601 133.3 601 100 601C66.7 601 33.3 601 16.7 601L0 601Z" fill="#fccb45"></path><path d="M0 520L16.7 525C33.3 530 66.7 540 100 546C133.3 552 166.7 554 200 549C233.3 544 266.7 532 300 521.5C333.3 511 366.7 502 400 503.8C433.3 505.7 466.7 518.3 500 523.2C533.3 528 566.7 525 600 523.5C633.3 522 666.7 522 700 526.7C733.3 531.3 766.7 540.7 800 542.3C833.3 544 866.7 538 883.3 535L900 532L900 601L883.3 601C866.7 601 833.3 601 800 601C766.7 601 733.3 601 700 601C666.7 601 633.3 601 600 601C566.7 601 533.3 601 500 601C466.7 601 433.3 601 400 601C366.7 601 333.3 601 300 601C266.7 601 233.3 601 200 601C166.7 601 133.3 601 100 601C66.7 601 33.3 601 16.7 601L0 601Z" fill="#ffe15d"></path></svg>