<svg id="visual" viewBox="0 0 600 900" width="600" height="900" xmlns="http://www.w3.org/2000/svg" xmlns:xlink="http://www.w3.org/1999/xlink" version="1.1"><rect x="0" y="0" width="600" height="900" fill="#59C1BD"></rect><path d="M0 375L11.2 388.5C22.3 402 44.7 429 66.8 432.7C89 436.3 111 416.7 133.2 418.5C155.3 420.3 177.7 443.7 200 440.8C222.3 438 244.7 409 266.8 418.8C289 428.7 311 477.3 333.2 478.8C355.3 480.3 377.7 434.7 400 412.7C422.3 390.7 444.7 392.3 466.8 409C489 425.7 511 457.3 533.2 472.5C555.3 487.7 577.7 486.3 588.8 485.7L600 485L600 901L588.8 901C577.7 901 555.3 901 533.2 901C511 901 489 901 466.8 901C444.7 901 422.3 901 400 901C377.7 901 355.3 901 333.2 901C311 901 289 901 266.8 901C244.7 901 222.3 901 200 901C177.7 901 155.3 901 133.2 901C111 901 89 901 66.8 901C44.7 901 22.3 901 11.2 901L0 901Z" fill="#f49d1a"></path><path d="M0 629L11.2 622.5C22.3 616 44.7 603 66.8 597.3C89 591.7 111 593.3 133.2 598.8C155.3 604.3 177.7 613.7 200 597.8C222.3 582 244.7 541 266.8 537.7C289 534.3 311 568.7 333.2 572.5C355.3 576.3 377.7 549.7 400 551.7C422.3 553.7 444.7 584.3 466.8 589C489 593.7 511 572.3 533.2 557.5C555.3 542.7 577.7 534.3 588.8 530.2L600 526L600 901L588.8 901C577.7 901 555.3 901 533.2 901C511 901 489 901 466.8 901C444.7 901 422.3 901 400 901C377.7 901 355.3 901 333.2 901C311 901 289 901 266.8 901C244.7 901 222.3 901 200 901C177.7 901 155.3 901 133.2 901C111 901 89 901 66.8 901C44.7 901 22.3 901 11.2 901L0 901Z" fill="#f8b42f"></path><path d="M0 711L11.2 713.5C22.3 716 44.7 721 66.8 721.5C89 722 111 718 133.2 702.8C155.3 687.7 177.7 661.3 200 642.3C222.3 623.3 244.7 611.7 266.8 618.5C289 625.3 311 650.7 333.2 669C355.3 687.3 377.7 698.7 400 692.8C422.3 687 444.7 664 466.8 667.5C489 671 511 701 533.2 709.8C555.3 718.7 577.7 706.3 588.8 700.2L600 694L600 901L588.8 901C577.7 901 555.3 901 533.2 901C511 901 489 901 466.8 901C444.7 901 422.3 901 400 901C377.7 901 355.3 901 333.2 901C311 901 289 901 266.8 901C244.7 901 222.3 901 200 901C177.7 901 155.3 901 133.2 901C111 901 89 901 66.8 901C44.7 901 22.3 901 11.2 901L0 901Z" fill="#fccb45"></path><path d="M0 781L11.2 788.5C22.3 796 44.7 811 66.8 819.8C89 828.7 111 831.3 133.2 823.8C155.3 816.3 177.7 798.7 200 783C222.3 767.3 244.7 753.7 266.8 756.3C289 759 311 778 333.2 785.2C355.3 792.3 377.7 787.7 400 785.3C422.3 783 444.7 783 466.8 790.2C489 797.3 511 811.7 533.2 814.2C555.3 816.7 577.7 807.3 588.8 802.7L600 798L600 901L588.8 901C577.7 901 555.3 901 533.2 901C511 901 489 901 466.8 901C444.7 901 422.3 901 400 901C377.7 901 355.3 901 333.2 901C311 901 289 901 266.8 901C244.7 901 222.3 901 200 901C177.7 901 155.3 901 133.2 901C111 901 89 901 66.8 901C44.7 901 22.3 901 11.2 901L0 901Z" fill="#ffe15d"></path></svg>